<?xml version="1.0" encoding="UTF-8"?>
<!DOCTYPE svg PUBLIC "-//W3C//DTD SVG 1.1//EN" "http://www.w3.org/Graphics/SVG/1.1/DTD/svg11.dtd">
<!-- Creator: CorelDRAW X7 -->
<svg xmlns="http://www.w3.org/2000/svg" xml:space="preserve" width="54.4071mm" height="65.6084mm" version="1.1" style="shape-rendering:geometricPrecision; text-rendering:geometricPrecision; image-rendering:optimizeQuality; fill-rule:evenodd; clip-rule:evenodd"
viewBox="0 0 795 959"
 xmlns:xlink="http://www.w3.org/1999/xlink">
 <defs>
  <style type="text/css">
   <![CDATA[
    .str0 {stroke:black;stroke-width:47.1454;stroke-linecap:round;stroke-linejoin:round}
    .fil2 {fill:none}
    .fil0 {fill:black}
    .fil1 {fill:white}
   ]]>
  </style>
 </defs>
 <g id="Camada_x0020_1">
  <metadata id="CorelCorpID_0Corel-Layer"/>
  <path class="fil0" d="M0 383c0,89 12,141 53,214 29,53 68,87 108,127 40,40 77,76 116,116l117 119c17,-11 221,-219 241,-239 66,-65 118,-115 145,-214 51,-186 -31,-362 -176,-449 -62,-37 -133,-56 -203,-57l-15 0c-92,2 -181,33 -246,94l-27 23c-6,7 -4,6 -10,13 -60,72 -103,147 -103,253zm259 15c0,116 147,182 233,98 91,-88 22,-237 -90,-237 -82,0 -143,66 -143,139z"/>
  <g id="_1357615335664">
   <ellipse class="fil1" cx="398" cy="392" rx="282" ry="298"/>
   <g>
    <path class="fil2 str0" d="M275 221c60,-43 138,-51 206,-22 107,46 156,170 110,277 -46,107 -170,156 -277,110 -106,-47 -156,-170 -109,-277"/>
    <g>
     <path class="fil0" d="M268 321c0,7 0,10 6,15 6,5 16,8 24,10 10,4 48,15 53,17 6,4 5,9 5,16 0,6 -3,33 -4,40 -2,14 -5,26 -7,39 -1,6 -3,12 -4,19l-9 48c0,4 -1,7 -1,10 0,9 9,17 18,17l4 0c12,0 17,-11 19,-21 4,-22 11,-63 18,-83 2,-5 3,-11 7,-14 6,2 11,24 12,29 3,11 5,22 8,33 2,12 4,22 6,34 4,17 9,22 23,22 10,0 18,-8 18,-17 0,-4 -11,-65 -12,-68 -2,-11 -8,-41 -9,-52 -1,-6 -2,-13 -3,-18 -1,-6 -1,-13 -1,-18 -1,-13 4,-14 21,-19l38 -13c10,-4 29,-9 29,-23 0,-6 0,-9 -4,-15 -7,-10 -16,-6 -26,-3l-40 10c-49,9 -71,9 -118,0 -16,-3 -31,-7 -47,-12 -7,-2 -13,-4 -20,5 -2,3 -4,7 -4,12z"/>
     <path class="fil0" d="M363 266l0 4c0,17 16,33 33,33l4 0c17,0 33,-16 33,-33l0 -4c0,-17 -16,-33 -33,-33l-4 0c-17,0 -33,16 -33,33z"/>
    </g>
   </g>
  </g>
 </g>
</svg>
